<svg width="50" height="50" viewBox="0 0 50 50" fill="none" xmlns="http://www.w3.org/2000/svg">
<path fill-rule="evenodd" clip-rule="evenodd" d="M25 50C38.8071 50 50 38.8071 50 25C50 11.1929 38.8071 0 25 0C11.1929 0 0 11.1929 0 25C0 38.8071 11.1929 50 25 50ZM26.875 17.5C26.875 16.4645 26.0355 15.625 25 15.625C23.9645 15.625 23.125 16.4645 23.125 17.5L23.125 23.1251H17.5C16.4645 23.1251 15.625 23.9645 15.625 25.0001C15.625 26.0356 16.4645 26.8751 17.5 26.8751H23.125V32.5C23.125 33.5355 23.9645 34.375 25 34.375C26.0355 34.375 26.875 33.5355 26.875 32.5L26.875 26.8751H32.5C33.5355 26.8751 34.375 26.0356 34.375 25.0001C34.375 23.9645 33.5355 23.1251 32.5 23.1251H26.875V17.5Z" fill="#1C274C"/>
<path fill-rule="evenodd" clip-rule="evenodd" d="M25 50C38.8071 50 50 38.8071 50 25C50 11.1929 38.8071 0 25 0C11.1929 0 0 11.1929 0 25C0 38.8071 11.1929 50 25 50ZM26.875 17.5C26.875 16.4645 26.0355 15.625 25 15.625C23.9645 15.625 23.125 16.4645 23.125 17.5L23.125 23.1251H17.5C16.4645 23.1251 15.625 23.9645 15.625 25.0001C15.625 26.0356 16.4645 26.8751 17.5 26.8751H23.125V32.5C23.125 33.5355 23.9645 34.375 25 34.375C26.0355 34.375 26.875 33.5355 26.875 32.5L26.875 26.8751H32.5C33.5355 26.8751 34.375 26.0356 34.375 25.0001C34.375 23.9645 33.5355 23.1251 32.5 23.1251H26.875V17.5Z" fill="url(#paint0_linear_15_79)"/>
<defs>
<linearGradient id="paint0_linear_15_79" x1="25" y1="50" x2="25" y2="0" gradientUnits="userSpaceOnUse">
<stop stop-color="#DB312C"/>
<stop offset="1" stop-color="#FF5351"/>
</linearGradient>
</defs>
</svg>
