<svg width="17" height="16" viewBox="0 0 17 16" fill="none" xmlns="http://www.w3.org/2000/svg">
<path fill-rule="evenodd" clip-rule="evenodd" d="M13.3333 0L16.6667 4.16667L8.33333 15.4167L0 4.16667L3.33333 0H13.3333ZM10.2564 4.79164H6.41027L8.33333 12.2917L10.2564 4.79164ZM4.9884 4.79164H2.52105L7.19945 11.8149L4.9884 4.79164ZM14.1447 4.79164H11.6782L9.46855 11.8105L14.1447 4.79164ZM6.59723 1.66664L4.13333 1.66667L2.63297 3.54164H5.24305L6.59723 1.66664ZM8.75 1.66664H7.91664L6.66668 3.54164H9.99996L8.75 1.66664ZM12.5325 1.66667L10.0694 1.66664L11.4236 3.54164H14.0329L12.5325 1.66667Z" fill="white"/>
</svg>
