<svg width="22" height="22" viewBox="0 0 22 22" fill="none" xmlns="http://www.w3.org/2000/svg">
<path fill-rule="evenodd" clip-rule="evenodd" d="M14.75 5.5C14.0596 5.5 13.5 6.05964 13.5 6.75C13.5 7.44036 14.0596 8 14.75 8C15.4404 8 16 7.44036 16 6.75C16 6.05964 15.4404 5.5 14.75 5.5ZM12 6.75C12 5.23122 13.2312 4 14.75 4C16.2688 4 17.5 5.23122 17.5 6.75C17.5 8.26878 16.2688 9.5 14.75 9.5C13.2312 9.5 12 8.26878 12 6.75Z" fill="white"/>
<path fill-rule="evenodd" clip-rule="evenodd" d="M10.6926 2.11541e-07H10.8074C13.1158 -1.26631e-05 14.9248 -2.28584e-05 16.3363 0.189747C17.781 0.383986 18.9211 0.789327 19.8159 1.68414C20.7107 2.57895 21.116 3.71897 21.3103 5.16371C21.5 6.57519 21.5 8.38423 21.5 10.6926V10.8074C21.5 13.1158 21.5 14.9248 21.3103 16.3363C21.116 17.781 20.7107 18.9211 19.8159 19.8159C18.9211 20.7107 17.781 21.116 16.3363 21.3103C14.9248 21.5 13.1158 21.5 10.8074 21.5H10.6926C8.38423 21.5 6.57519 21.5 5.16371 21.3103C3.71897 21.116 2.57895 20.7107 1.68414 19.8159C0.789327 18.9211 0.383986 17.781 0.189747 16.3363C-2.28584e-05 14.9248 -1.26631e-05 13.1158 2.11541e-07 10.8074V10.6926C-1.26631e-05 8.38423 -2.28584e-05 6.57519 0.189747 5.16371C0.383986 3.71897 0.789327 2.57895 1.68414 1.68414C2.57895 0.789327 3.71897 0.383986 5.16371 0.189747C6.57519 -2.28584e-05 8.38423 -1.26631e-05 10.6926 2.11541e-07ZM2.7448 18.7552C2.17514 18.1855 1.84825 17.4148 1.67637 16.1364C1.52289 14.9949 1.50296 13.5385 1.50038 11.5901L2.99546 10.2819C3.60958 9.7446 4.53515 9.77542 5.11216 10.3524L9.40188 14.6422C10.3468 15.5871 11.8343 15.7159 12.9276 14.9475L13.2258 14.738C14.084 14.1349 15.2451 14.2047 16.0247 14.9064L19.2483 17.8076C19.2834 17.8392 19.3206 17.8668 19.3595 17.8906C19.1978 18.2315 18.9987 18.5117 18.7552 18.7552C18.1855 19.3249 17.4148 19.6518 16.1364 19.8236C14.8364 19.9984 13.1282 20 10.75 20C8.37177 20 6.66356 19.9984 5.36358 19.8236C4.08517 19.6518 3.31445 19.3249 2.7448 18.7552ZM5.36358 1.67637C4.08517 1.84825 3.31445 2.17514 2.7448 2.7448C2.17514 3.31445 1.84825 4.08517 1.67637 5.36358C1.53124 6.44307 1.50552 7.80407 1.50098 9.59647L2.00771 9.15308C3.21613 8.09572 5.03741 8.15636 6.17282 9.29177L10.4625 13.5815C10.8921 14.011 11.5682 14.0696 12.0652 13.7203L12.3634 13.5107C13.7937 12.5055 15.7288 12.622 17.0282 13.7915L19.8022 16.2881C19.8096 16.2383 19.8167 16.1878 19.8236 16.1364C19.9984 14.8364 20 13.1282 20 10.75C20 8.37177 19.9984 6.66356 19.8236 5.36358C19.6518 4.08517 19.3249 3.31445 18.7552 2.7448C18.1855 2.17514 17.4148 1.84825 16.1364 1.67637C14.8364 1.50159 13.1282 1.5 10.75 1.5C8.37177 1.5 6.66356 1.50159 5.36358 1.67637Z" fill="white"/>
</svg>
